<svg width="13.50375" height="18.75675" xmlns="http://www.w3.org/2000/svg">
 <defs>
  <clipPath id="clipPath6249" clipPathUnits="userSpaceOnUse">
   <path id="path6251" d="m1103.744853,258.15796l10.803,0l0,-15.0058l-10.803,0l0,15.0058z"/>
  </clipPath>
 </defs>
 <metadata id="metadata6452">image/svg+xml</metadata>
 <g>
  <title>background</title>
  <rect fill="none" id="canvas_background" height="402" width="582" y="-1" x="-1"/>
 </g>
 <g>
  <title>Layer 1</title>
  <g id="layer1">
   <g id="g6245" transform="matrix(1.25,0,0,-1.25,-1379.6838,322.69745) ">
    <g id="g6247"/>
    <g id="g6253">
     <g opacity="0.800003" id="g6255" clip-path="url(#clipPath6249)">
      <g id="g6257">
       <path fill="#8b6e4a" fill-rule="nonzero" id="path6259" d="m1103.744663,258.157961c0.046,0 0.092,0 0.138,0"/>
      </g>
      <g id="g6261">
       <path fill="#8b6e4a" fill-rule="nonzero" id="path6263" d="m1114.540561,257.983561c0,-0.767 -0.002,-1.534 0.002,-2.301c0.001,-0.103 -0.024,-0.137 -0.132,-0.136c-0.419,0.005 -0.839,0.004 -1.258,-0.004c-0.143,-0.002 -0.286,-0.024 -0.427,-0.051c-0.27,-0.049 -0.461,-0.267 -0.472,-0.572c-0.019,-0.538 -0.017,-1.078 -0.027,-1.617c-0.002,-0.098 0.061,-0.084 0.12,-0.084c0.683,-0.001 1.366,0 2.049,0l0.157,0c-0.092,-0.871 -0.182,-1.723 -0.272,-2.583l-2.051,0l0,-0.162c-0.001,-2.392 -0.001,-4.785 -0.002,-7.178c0,-0.048 -0.003,-0.096 -0.004,-0.143l-2.805,0c0.001,0.048 0.002,0.095 0.002,0.143c0.001,2.385 0.001,4.77 0.001,7.155l0,0.18l-1.868,0c-0.004,0.048 -0.009,0.082 -0.009,0.117c0,0.779 0.002,1.558 -0.002,2.337c-0.001,0.105 0.028,0.136 0.134,0.135c0.539,-0.005 1.079,0 1.618,-0.004c0.1,-0.001 0.128,0.031 0.128,0.13c0.004,0.699 0,1.398 0.025,2.096c0.018,0.51 0.125,1.005 0.363,1.465c0.257,0.496 0.655,0.833 1.182,1.002c0.32,0.103 0.656,0.159 0.943,0.227l2.609,0.022l-0.004,-0.174z"/>
      </g>
     </g>
    </g>
   </g>
  </g>
 </g>
</svg>