<?xml version="1.0" encoding="UTF-8" standalone="no"?>
<!-- Created with Inkscape (http://www.inkscape.org/) -->

<svg
   xmlns:dc="http://purl.org/dc/elements/1.1/"
   xmlns:cc="http://creativecommons.org/ns#"
   xmlns:rdf="http://www.w3.org/1999/02/22-rdf-syntax-ns#"
   xmlns:svg="http://www.w3.org/2000/svg"
   xmlns="http://www.w3.org/2000/svg"
   xmlns:sodipodi="http://sodipodi.sourceforge.net/DTD/sodipodi-0.dtd"
   xmlns:inkscape="http://www.inkscape.org/namespaces/inkscape"
   width="18.749624"
   height="18.74975"
   id="svg6371"
   version="1.1"
   inkscape:version="0.48.4 r9939"
   sodipodi:docname="New document 50">
  <defs
     id="defs6373">
    <clipPath
       clipPathUnits="userSpaceOnUse"
       id="clipPath6225">
      <path
         inkscape:connector-curvature="0"
         d="m 954.492,29.6445 15,0 0,-15 -15,0 0,15 z"
         id="path6227" />
    </clipPath>
  </defs>
  <sodipodi:namedview
     id="base"
     pagecolor="#ffffff"
     bordercolor="#666666"
     borderopacity="1.0"
     inkscape:pageopacity="0.0"
     inkscape:pageshadow="2"
     inkscape:zoom="0.35"
     inkscape:cx="9.37481"
     inkscape:cy="9.3748724"
     inkscape:document-units="px"
     inkscape:current-layer="layer1"
     showgrid="false"
     fit-margin-top="0"
     fit-margin-left="0"
     fit-margin-right="0"
     fit-margin-bottom="0"
     inkscape:window-width="705"
     inkscape:window-height="481"
     inkscape:window-x="926"
     inkscape:window-y="633"
     inkscape:window-maximized="0" />
  <metadata
     id="metadata6376">
    <rdf:RDF>
      <cc:Work
         rdf:about="">
        <dc:format>image/svg+xml</dc:format>
        <dc:type
           rdf:resource="http://purl.org/dc/dcmitype/StillImage" />
        <dc:title></dc:title>
      </cc:Work>
    </rdf:RDF>
  </metadata>
  <g
     inkscape:label="Layer 1"
     inkscape:groupmode="layer"
     id="layer1"
     transform="translate(-365.62519,-522.98731)">
    <g
       transform="matrix(1.25,0,0,-1.25,-827.48981,560.04268)"
       id="g6221">
      <g
         id="g6223" />
      <g
         id="g6229">
        <g
           style="opacity:0.80000299"
           clip-path="url(#clipPath6225)"
           id="g6231">
          <g
             transform="translate(968.1507,22.1453)"
             id="g6233">
            <path
               inkscape:connector-curvature="0"
               d="m 0,0 c -0.008,0 -0.015,0 -0.023,0 0,0.625 0.012,1.25 -0.004,1.874 -0.014,0.589 -0.037,1.18 -0.096,1.765 -0.058,0.56 -0.255,1.077 -0.633,1.512 C -1.285,5.76 -1.983,6.017 -2.757,6.064 -3.636,6.118 -4.519,6.131 -5.401,6.142 -6.279,6.153 -7.156,6.149 -8.034,6.131 -8.623,6.12 -9.213,6.095 -9.799,6.035 c -0.56,-0.057 -1.076,-0.255 -1.512,-0.633 -0.609,-0.529 -0.866,-1.227 -0.913,-2 -0.053,-0.88 -0.067,-1.763 -0.077,-2.645 -0.011,-0.877 -0.008,-1.755 0.01,-2.633 0.012,-0.589 0.037,-1.179 0.097,-1.765 0.057,-0.56 0.254,-1.076 0.632,-1.512 0.529,-0.609 1.228,-0.865 2.001,-0.913 0.88,-0.053 1.762,-0.067 2.644,-0.077 0.878,-0.011 1.756,-0.011 2.633,0.011 0.648,0.017 1.302,0.029 1.94,0.129 1.09,0.172 1.828,0.804 2.121,1.886 0.095,0.35 0.145,0.721 0.159,1.084 C -0.027,-2.022 -0.019,-1.011 0,0 m -13.659,-2.471 0,4.94 c 0.008,0.047 0.023,0.094 0.024,0.141 0.017,0.58 0.043,1.158 0.185,1.724 0.321,1.278 1.062,2.207 2.28,2.734 0.66,0.285 1.362,0.368 2.074,0.397 0.156,0.007 0.311,0.023 0.467,0.034 l 4.94,0 C -3.642,7.491 -3.595,7.477 -3.548,7.475 -2.968,7.458 -2.39,7.432 -1.824,7.29 -0.546,6.969 0.383,6.229 0.91,5.011 1.195,4.35 1.278,3.648 1.307,2.937 1.314,2.781 1.33,2.625 1.341,2.469 l 0,-4.94 C 1.333,-2.518 1.319,-2.564 1.317,-2.612 1.3,-3.191 1.274,-3.77 1.132,-4.336 0.811,-5.613 0.071,-6.542 -1.148,-7.069 -1.808,-7.355 -2.51,-7.438 -3.221,-7.467 -3.377,-7.473 -3.533,-7.489 -3.689,-7.501 l -4.94,0 c -0.047,0.009 -0.094,0.023 -0.141,0.024 -0.579,0.017 -1.158,0.044 -1.724,0.186 -1.277,0.32 -2.207,1.061 -2.733,2.279 -0.286,0.66 -0.369,1.362 -0.398,2.074 -0.006,0.156 -0.022,0.311 -0.034,0.467"
               style="fill:#e5e1d7;fill-opacity:1;fill-rule:nonzero;stroke:none"
               id="path6235" />
          </g>
          <g
             transform="translate(961.9897,19.6495)"
             id="g6237">
            <path
               inkscape:connector-curvature="0"
               d="M 0,0 C 1.365,0 2.496,1.117 2.497,2.467 2.498,3.858 1.391,4.989 0.026,4.99 -1.369,4.991 -2.493,3.881 -2.493,2.501 -2.493,1.121 -1.376,0 0,0 m 3.856,2.492 c 0,-2.133 -1.728,-3.854 -3.865,-3.851 -2.124,0.003 -3.845,1.73 -3.843,3.857 10e-4,2.134 1.729,3.855 3.865,3.851 C 2.138,6.346 3.857,4.62 3.856,2.492"
               style="fill:#e5e1d7;fill-opacity:1;fill-rule:nonzero;stroke:none"
               id="path6239" />
          </g>
          <g
             transform="translate(965.9871,27.0503)"
             id="g6241">
            <path
               inkscape:connector-curvature="0"
               d="M 0,0 C 0.504,0.002 0.909,-0.399 0.911,-0.9 0.912,-1.402 0.507,-1.808 0.006,-1.809 -0.49,-1.81 -0.901,-1.398 -0.899,-0.9 -0.897,-0.407 -0.493,-0.002 0,0"
               style="fill:#e5e1d7;fill-opacity:1;fill-rule:nonzero;stroke:none"
               id="path6243" />
          </g>
        </g>
      </g>
    </g>
  </g>
</svg>
