<svg width="18.749624" height="18.74975" xmlns="http://www.w3.org/2000/svg">
 <defs>
  <clipPath id="clipPath6225" clipPathUnits="userSpaceOnUse">
   <path id="path6227" d="m661.991847,448.034332l15,0l0,-15l-15,0l0,15z"/>
  </clipPath>
 </defs>
 <metadata id="metadata6376">image/svg+xml</metadata>
 <g>
  <title>background</title>
  <rect fill="none" id="canvas_background" height="402" width="582" y="-1" x="-1"/>
 </g>
 <g>
  <title>Layer 1</title>
  <g id="layer1">
   <g id="g6221" transform="matrix(1.25,0,0,-1.25,-827.48981,560.04268) ">
    <g id="g6223"/>
    <g id="g6229">
     <g opacity="0.800003" id="g6231" clip-path="url(#clipPath6225)">
      <g id="g6233">
       <path fill="#8b6e4a" fill-rule="nonzero" id="path6235" d="m675.650543,440.535131c-0.008,0 -0.015,0 -0.023,0c0,0.625 0.012,1.25 -0.004,1.874c-0.014,0.589 -0.037,1.18 -0.096,1.765c-0.058,0.56 -0.255,1.077 -0.633,1.512c-0.529,0.609 -1.227,0.866 -2.001,0.913c-0.879,0.054 -1.762,0.067 -2.644,0.078c-0.878,0.011 -1.755,0.007 -2.633,-0.011c-0.589,-0.011 -1.179,-0.036 -1.765,-0.096c-0.56,-0.057 -1.076,-0.255 -1.512,-0.633c-0.609,-0.529 -0.866,-1.227 -0.913,-2c-0.053,-0.88 -0.067,-1.763 -0.077,-2.645c-0.011,-0.877 -0.008,-1.755 0.01,-2.633c0.012,-0.589 0.037,-1.179 0.097,-1.765c0.057,-0.56 0.254,-1.076 0.632,-1.512c0.529,-0.609 1.228,-0.865 2.001,-0.913c0.88,-0.053 1.762,-0.067 2.644,-0.077c0.878,-0.011 1.756,-0.011 2.633,0.011c0.648,0.017 1.302,0.029 1.94,0.129c1.09,0.172 1.828,0.804 2.121,1.886c0.095,0.35 0.145,0.721 0.159,1.084c0.037,1.011 0.045,2.022 0.064,3.033m-13.659,-2.471l0,4.94c0.008,0.047 0.023,0.094 0.024,0.141c0.017,0.58 0.043,1.158 0.185,1.724c0.321,1.278 1.062,2.207 2.28,2.734c0.66,0.285 1.362,0.368 2.074,0.397c0.156,0.007 0.311,0.023 0.467,0.034l4.94,0c0.047,-0.008 0.094,-0.022 0.141,-0.024c0.58,-0.017 1.158,-0.043 1.724,-0.185c1.278,-0.321 2.207,-1.061 2.734,-2.279c0.285,-0.661 0.368,-1.363 0.397,-2.074c0.007,-0.156 0.023,-0.312 0.034,-0.468l0,-4.94c-0.008,-0.047 -0.022,-0.093 -0.024,-0.141c-0.017,-0.579 -0.043,-1.158 -0.185,-1.724c-0.321,-1.277 -1.061,-2.206 -2.28,-2.733c-0.66,-0.286 -1.362,-0.369 -2.073,-0.398c-0.156,-0.006 -0.312,-0.022 -0.468,-0.034l-4.94,0c-0.047,0.009 -0.094,0.023 -0.141,0.024c-0.579,0.017 -1.158,0.044 -1.724,0.186c-1.277,0.32 -2.207,1.061 -2.733,2.279c-0.286,0.66 -0.369,1.362 -0.398,2.074c-0.006,0.156 -0.022,0.311 -0.034,0.467"/>
      </g>
      <g id="g6237">
       <path fill="#8b6e4a" fill-rule="nonzero" id="path6239" d="m669.489532,438.039331c1.365,0 2.496,1.117 2.497,2.467c0.001,1.391 -1.106,2.522 -2.471,2.523c-1.395,0.001 -2.519,-1.109 -2.519,-2.489c0,-1.38 1.117,-2.501 2.493,-2.501m3.856,2.492c0,-2.133 -1.728,-3.854 -3.865,-3.851c-2.124,0.003 -3.845,1.73 -3.843,3.857c0.001,2.134 1.729,3.855 3.865,3.851c2.125,-0.003 3.844,-1.729 3.843,-3.857"/>
      </g>
      <g id="g6241">
       <path fill="#8b6e4a" fill-rule="nonzero" id="path6243" d="m673.486969,445.440132c0.504,0.002 0.909,-0.399 0.911,-0.9c0.001,-0.502 -0.404,-0.908 -0.905,-0.909c-0.496,-0.001 -0.907,0.411 -0.905,0.909c0.002,0.493 0.406,0.898 0.899,0.9"/>
      </g>
     </g>
    </g>
   </g>
  </g>
 </g>
</svg>