<?xml version="1.0" encoding="UTF-8" standalone="no"?>
<svg
   xmlns:dc="http://purl.org/dc/elements/1.1/"
   xmlns:cc="http://creativecommons.org/ns#"
   xmlns:rdf="http://www.w3.org/1999/02/22-rdf-syntax-ns#"
   xmlns:svg="http://www.w3.org/2000/svg"
   xmlns="http://www.w3.org/2000/svg"
   viewBox="0 0 1040.2267 566.61334"
   height="566.61334"
   width="1040.2267"
   xml:space="preserve"
   id="svg2"
   version="1.1"><metadata
     id="metadata8"><rdf:RDF><cc:Work
         rdf:about=""><dc:format>image/svg+xml</dc:format><dc:type
           rdf:resource="http://purl.org/dc/dcmitype/StillImage" /></cc:Work></rdf:RDF></metadata><defs
     id="defs6"><clipPath
       id="clipPath20"
       clipPathUnits="userSpaceOnUse"><path
         id="path18"
         d="M 0,4249.56 V 0 h 7801.7 v 4249.56 z" /></clipPath></defs><g
     transform="matrix(1.3333333,0,0,-1.3333333,0,566.61333)"
     id="g10"><g
       transform="scale(0.1)"
       id="g12"><g
         id="g14"><g
           clip-path="url(#clipPath20)"
           id="g16"><path
             id="path22"
             style="fill:#ffffff;fill-opacity:1;fill-rule:nonzero;stroke:none"
             d="m 4187.24,1302.62 -45.35,-111.95 C 3970.47,827.68 3792.65,616.102 3391.27,608.762 l -106.17,0.609 c -19.65,78.32 -29.4,166.859 -29.4,266.66 V 2353.69 c 0,11.53 35.82,44.22 199.39,56.61 l 189.33,13.39 c -1.75,-28.97 -2.95,-58.11 -2.95,-87.57 0,-450.79 206.05,-817.7 545.77,-1033.5 z m 706.87,-209.56 0.36,-109.58 c 0,-578 -247.94,-847.199 -780.3,-847.199 -459.1,0 -716.83,129.309 -813.48,420.641 h 710.18 l 219.5,719.588 c 187.56,-108.61 412.33,-173.37 663.74,-183.45 z M 724.652,624.059 V 1171.79 H 2953.95 V 860.691 c 0,-91.332 8.09,-173.769 22.75,-249.55 z M 6324.94,2663.81 6725.75,1660.39 h -814.67 c 17.98,36.57 64.65,150.38 209.86,504.62 89.53,218.35 178.66,436.7 204,498.8 z m -3811.14,-197.86 22.56,-39.93 174.82,-11.88 c 224.9,-15.31 242.77,-30.57 242.77,-48.94 v -596.5 c -164.9,-340.06 -343.4,-537.93 -734.42,-545.08 l -628.96,15.13 v 1187.79 l 271.82,-7.39 c 356.45,-7.6 368.6,-31.84 389.86,-291.51 l 5.03,-48.67 40.39,-7.1 13.32,704.6 -39.98,7.04 -15.23,-104.81 -9.15,-28.72 c -51.42,-161.94 -51.42,-161.94 -232.99,-164.69 -34.53,-0.52 -73.67,-1.12 -120.63,-2.79 h -302.44 v 1057.34 h 671.79 c 290.64,0 452.96,-137.15 620.71,-524.87 l 32.39,-57.28 35.96,-7.96 -107.6,638.12 H 931.184 l 22.742,-40.11 92.144,-11.69 c 210.87,-14.35 242.73,-22.09 242.73,-41.28 V 1276.38 c 0,-3.47 -5.6,-34.26 -199.05,-48.92 l -365.098,-15.17 v 2924.98 c 0,11.55 35.825,44.24 199.239,56.64 l 266.069,15.68 22.61,39.97 H 4.30859 l 22.49611,-39.71 114.1913,-12.1 c 210.895,-14.34 242.754,-22.09 242.754,-41.27 V 661.52 c 0,-3.469 -5.598,-34.258 -199.703,-48.961 L 22.4844,596.691 0,556.922 H 2987.65 C 3085.85,169.852 3403.11,0 3996.96,0 c 625.53,0 956.17,336.121 956.17,972.012 v 119.828 c 3.64,-0.02 7.19,-0.22 10.84,-0.22 271.73,0 556.98,85.39 719.7,170.33 l 8.62,5.25 C 5431.06,659.352 5409.09,634.02 5149.48,604.879 l -74.63,-8.258 -22.46,-39.699 h 934.66 l -22.54,39.84 -96.72,8.16 c -171.84,12.219 -265.05,26.609 -297.51,71.308 -36.62,50.399 1.31,149.418 71.52,320.051 190.92,460.639 238.67,579.519 248.97,612.249 h 854.9 l 353.7,-888.518 c 9.71,-23.832 8.61,-43.352 -3.39,-59.641 -23.86,-32.422 -91.42,-52.371 -200.4,-59.269 l -144.77,-4.012 -22.71,-40.168 h 1073.6 l -22.66,39.969 -127.15,8.039 c -194.38,11.199 -222.97,58.941 -312.67,259.09 L 6417.54,3131.14 H 6370 l -2.75,-4.63 c -44.73,-75.16 -82.76,-120.63 -155.51,-145.66 l -8.79,-3.02 96.48,-232.2 -381.21,-928.61 -69.74,-129.07 c -215.7,-386.73 -473.08,-544.47 -888.36,-544.47 -2.37,0 -4.62,0.32 -6.99,0.33 v 1175.31 c 0,62.13 112.88,83.89 295.05,98.88 l 92.21,8.14 22.52,39.81 h -986.75 l 22.51,-39.8 88.21,-8.18 c 277.05,-16.06 403.24,-56.53 403.24,-87.36 l 3.82,-1183.93 c -276.54,15.87 -511.4,129.82 -681.23,334.46 -181.9,219.19 -278.06,525.45 -278.06,885.69 0,348.69 96.47,646.95 278.97,862.58 187.01,220.95 451.82,337.73 765.81,337.73 252.42,0 474.68,-85.59 575.39,-165.56 l 283.69,-536.81 h 39.31 l -51.93,678.63 -197.18,-91.96 c -193.09,111.19 -412.79,167.57 -653.16,167.57 -378.33,0 -719.88,-129.1 -961.75,-363.51 -210.89,-204.4 -338.48,-481.18 -366.43,-789.55 H 2513.8" /></g></g></g></g></svg>