<?xml version="1.0" encoding="UTF-8" standalone="no"?>
<svg
   xmlns:dc="http://purl.org/dc/elements/1.1/"
   xmlns:cc="http://creativecommons.org/ns#"
   xmlns:rdf="http://www.w3.org/1999/02/22-rdf-syntax-ns#"
   xmlns:svg="http://www.w3.org/2000/svg"
   xmlns="http://www.w3.org/2000/svg"
   viewBox="0 0 3139.1467 666.66669"
   height="666.66669"
   width="3139.1467"
   xml:space="preserve"
   id="svg2"
   version="1.1"><metadata
     id="metadata8"><rdf:RDF><cc:Work
         rdf:about=""><dc:format>image/svg+xml</dc:format><dc:type
           rdf:resource="http://purl.org/dc/dcmitype/StillImage" /></cc:Work></rdf:RDF></metadata><defs
     id="defs6"><clipPath
       id="clipPath20"
       clipPathUnits="userSpaceOnUse"><path
         id="path18"
         d="M 0,0 H 14666 V 3114.65 H 0 Z" /></clipPath></defs><g
     transform="matrix(1.3333333,0,0,-1.3333333,0,666.66667)"
     id="g10"><g
       transform="scale(0.160532)"
       id="g12"><g
         id="g14"><g
           clip-path="url(#clipPath20)"
           id="g16"><path
             id="path22"
             style="fill:#ffffff;fill-opacity:1;fill-rule:nonzero;stroke:none"
             d="M 0,3114.65 V 16.6758 H 3025.56 V 3088.98 L 1525.62,1589.04 0,3114.65" /><path
             id="path24"
             style="fill:#ffffff;fill-opacity:1;fill-rule:nonzero;stroke:none"
             d="m 4536.46,1335.29 c 98.29,14.4 191.36,44.86 277.13,90.77 90.98,48.63 171.94,111.23 239.97,185.93 68.65,74.92 122.91,162.56 161.51,260.42 38.82,98.08 58.43,204.09 58.43,314.68 0,118.53 -22.95,231.22 -68.23,334.72 -45.08,102.87 -107.06,194.28 -184.27,271.48 -77.2,77.21 -168.61,139.19 -271.48,184.26 -103.5,45.28 -216.18,68.24 -334.5,68.24 H 3303.41 V 16.6758 H 5492.19 L 4677.74,1142.06 4536.46,1335.29" /><path
             id="path26"
             style="fill:#ffffff;fill-opacity:1;fill-rule:nonzero;stroke:none"
             d="m 8564.54,2601.43 c -127.08,135.85 -278.14,244.99 -449.26,324.28 -171.99,79.51 -357.68,120 -551.98,120 H 6679.18 V 16.5938 h 884.12 c 194.3,0 379.99,40.2734 551.98,119.9882 171.12,79.293 322.18,188.227 449.26,324.281 126.89,135.637 228.68,297.36 302.81,480.364 74.06,183.423 111.63,381.873 111.63,589.923 0,208.05 -37.57,406.49 -111.63,589.92 -74.13,183.22 -175.92,344.73 -302.81,480.36" /><path
             id="path28"
             style="fill:#ffffff;fill-opacity:1;fill-rule:nonzero;stroke:none"
             d="m 9190.83,16.6758 h 1185.69 v 3029.11 H 9190.83 Z" /><path
             id="path30"
             style="fill:#ffffff;fill-opacity:1;fill-rule:nonzero;stroke:none"
             d="m 12503.8,1864.46 c 41,101 62.1,209.51 62.1,322.61 0,118.53 -23,231.22 -68.2,334.72 -45.1,102.87 -107.1,194.27 -184.3,271.48 -77.2,77.21 -168.6,139.18 -271.5,184.26 -103.4,45.28 -216.1,68.24 -334.5,68.24 H 10596 V 16.6562 h 1185.7 V 1330.05 c 105.2,9.18 205,36.93 297.2,82.43 96.4,47.57 181.7,110.17 253.7,185.93 72.2,76.16 129.8,165.68 171.2,266.05" /><path
             id="path32"
             style="fill:#ffffff;fill-opacity:1;fill-rule:nonzero;stroke:none"
             d="m 13912.9,1924.69 -4.2,3.96 757.3,757.28 -35.2,34.43 c -109.2,106.43 -233.4,188.22 -369.4,242.9 -270,108.71 -569.1,109.34 -842.2,2.08 -136.5,-53.63 -261.1,-136.05 -370.4,-245.4 -109.2,-109.14 -192.2,-233.71 -247.1,-369.98 -54.4,-135.64 -82.2,-277.53 -82.2,-421.31 0,-143.56 27.8,-285.47 82.2,-421.1 54.9,-136.27 137.9,-260.84 247.1,-369.98 l 4.1,-3.96 -757.2,-757.286 35.3,-34.429 c 109.1,-106.633 233.4,-188.223 369.5,-243.1059 135.8,-54.461 277.6,-82.2188 421.3,-82.2188 143.6,0 285.3,27.7578 421.1,82.2188 136.1,54.8829 260.7,136.6839 370,243.5229 109.3,109.348 192,233.922 245.4,370.395 53.4,135.645 80.3,277.328 80.3,420.683 0,143.57 -26.9,285.27 -80.3,421.11 -53.4,136.05 -136.1,260.63 -245.4,370.19" /><path
             id="path34"
             style="fill:#ffffff;fill-opacity:1;fill-rule:nonzero;stroke:none"
             d="m 6025.85,857.234 c -236.84,0 -428.61,-191.769 -428.61,-428.613 C 5597.24,191.98 5789.01,0 6025.85,0 c 236.65,0 428.64,191.98 428.64,428.621 0,236.844 -191.99,428.613 -428.64,428.613" /></g></g></g></g></svg>