<svg width="553.91998" height="167.24001" xmlns="http://www.w3.org/2000/svg">
 <metadata id="metadata8">image/svg+xml</metadata>

 <g>
  <title>background</title>
  <rect x="-1" y="-1" width="555.91998" height="169.24001" id="canvas_background" fill="none"/>
 </g>
 <g>
  <title>Layer 1</title>
  <g transform="matrix(1.3333333,0,0,-1.3333333,0,167.24) " id="g10">
   <g transform="scale(0.10000000149011612) " id="g12">
    <path id="path14" d="m4149.99,1247.62l-341.16,0c-2.44,0 -4.44,-2 -4.44,-4.43l0,-50.29c0,-2.44 2,-4.44 4.44,-4.44l136.56,0c2.44,0 4.44,-1.99 4.44,-4.43l0,-1169.1511c0,-2.4375 1.96,-4.8086 4.36,-5.25781l50.44,-9.53906c2.4,-0.46094 4.36,1.16797 4.36,3.60938l0,1180.33859c0,2.44 1.99,4.43 4.43,4.43l136.57,0c2.44,0 4.43,2 4.43,4.44l0,50.29c0,2.43 -1.99,4.43 -4.43,4.43" stroke="#8b6e4a" fill-rule="nonzero" fill="#8b6e4a"/>
    <path id="path16" d="m1911.79,1247.39l-341.16,0c-2.44,0 -4.44,-2 -4.44,-4.44l0,-50.28c0,-2.44 2,-4.44 4.44,-4.44l136.56,0c2.44,0 4.44,-2 4.44,-4.43l0,-752.316c0,-2.441 1.96,-4.804 4.36,-5.25l50.44,-9.406c2.4,-0.445 4.36,1.184 4.36,3.625l0,763.347c0,2.43 1.99,4.43 4.44,4.43l136.56,0c2.44,0 4.43,2 4.43,4.44l0,50.28c0,2.44 -1.99,4.44 -4.43,4.44" stroke="#8b6e4a" fill-rule="nonzero" fill="#8b6e4a"/>
    <path id="path18" d="m3671.78,1247.07l-50.29,0c-2.44,0 -4.43,-1.99 -4.43,-4.43l0,-459.464c0,-2.442 -2,-4.438 -4.44,-4.438l-259.81,0c-2.44,0 -4.44,1.996 -4.44,4.438l0,459.464c0,2.44 -2,4.43 -4.44,4.43l-50.28,0c-2.44,0 -4.44,-1.99 -4.44,-4.43l0,-1104.82c0,-2.441 1.96,-4.808 4.36,-5.261l50.44,-9.539c2.4,-0.461 4.36,1.171 4.36,3.609l0,588.512c0,2.441 2,4.437 4.44,4.437l259.81,0c2.44,0 4.44,-1.996 4.44,-4.437l0,-638.2504c0,-2.4414 1.96,-4.8125 4.36,-5.2695l50.44,-9.5313c2.39,-0.4609 4.36,1.1719 4.36,3.6094l0,1176.9408c0,2.44 -2,4.43 -4.44,4.43" stroke="#8b6e4a" fill-rule="nonzero" fill="#8b6e4a"/>
    <path id="path20" d="m2937.4,1247.65l-20.98,0c-100.87,0 -182.65,-81.77 -182.65,-182.65l0,-680.992c0,-100.867 81.77,-182.637 182.64,-182.637l21,0c100.87,0 182.64,81.774 182.64,182.641l0,354.343l-0.14,0l0,37.204c0,2.449 -1.99,4.437 -4.44,4.437l-199.64,0c-2.45,0 -4.44,-1.988 -4.44,-4.437l0,-50.286c0,-2.453 1.99,-4.437 4.44,-4.437l140.62,0c2.46,0 4.44,-1.984 4.44,-4.438l0,-332.39c0,-68.196 -55.28,-123.477 -123.47,-123.477l-21,0c-68.2,0 -123.49,55.289 -123.49,123.489l0,680.98c0,68.2 55.29,123.49 123.49,123.49l20.99,0c68.2,0 123.48,-55.28 123.48,-123.48l0,-105.268c0,-2.449 1.99,-4.433 4.44,-4.433l50.28,0c2.45,0 4.44,1.984 4.44,4.433l0,105.258c0,100.88 -81.77,182.65 -182.65,182.65" stroke="#8b6e4a" fill-rule="nonzero" fill="#8b6e4a"/>
    <path id="path22" d="m2532.96,1247.07l-50.28,0c-2.45,0 -4.44,-1.99 -4.44,-4.43l0,-953.8c0,-2.438 1.96,-4.785 4.37,-5.215l50.42,-9.012c2.4,-0.429 4.37,1.215 4.37,3.657l0,964.37c0,2.44 -2,4.43 -4.44,4.43" stroke="#8b6e4a" fill-rule="nonzero" fill="#8b6e4a"/>
    <path id="path24" d="m1428.07,856.516c-14.99,14.113 -43.3,35.492 -76.08,60.254c-41.44,31.292 -88.41,66.769 -108.86,88.24c-29.91,31.41 -33.89,60.01 -34.19,62.29c-5.61,37.34 1.4,67.56 20.83,89.82c24.04,27.54 61.71,37.43 88.88,36.59c111.5,-1.51 122.46,-88.83 123.43,-111.36c0.09,-2.1 1.63,-3.71 3.62,-4.08l-3.53,0.07l3.53,-0.07c0.25,-0.04 0.49,-0.15 0.75,-0.15l25.91,-0.3l25.73,-0.44c2.54,-0.04 4.61,1.95 4.52,4.48c-0.6,16.87 -5.88,76.1 -49.27,120.85c-32.41,33.42 -77.45,50.75 -133.87,51.52c-52.4,0.9 -103.33,-20.71 -135.29,-57.32c-21.76,-24.91 -45.5,-69.2 -35.28,-137.12c0.5,-4.98 6.15,-50.04 50.41,-96.509c23.85,-25.058 70.8,-60.519 116.2,-94.797c30.08,-22.722 58.48,-44.175 71.08,-56.043c47.68,-44.855 104.65,-114.089 49.28,-197.156c-12.16,-18.234 -59.59,-76.445 -159.41,-58.984c-89.45,15.597 -120.28,91.226 -126.48,109.496c-0.75,2.215 -3.05,3.367 -5.31,2.762l-49.94,-13.379c-2.45,-0.657 -3.89,-3.129 -3.12,-5.543c7.52,-23.481 48.53,-130.996 174.45,-152.953c15.64,-2.735 31.01,-4.079 45.97,-4.079c72.74,0 135.89,31.665 174.19,89.11c74.52,111.789 9.5,211.152 -58.15,274.801" stroke="#8b6e4a" fill-rule="nonzero" fill="#8b6e4a"/>
    <path id="path26" d="m2349.7,368.508l-256.57,47.875c-2.4,0.449 -4.36,2.808 -4.36,5.25l0,821.007c0,2.44 -2,4.43 -4.44,4.43l-50.28,0c-2.44,0 -4.44,-1.99 -4.44,-4.43l0,-870.292c0,-2.438 1.96,-4.801 4.36,-5.246l50.44,-9.372c2.4,-0.449 4.36,-0.792 4.36,-0.765c0,0.027 1.96,-0.317 4.36,-0.766l256.57,-47.871c2.4,-0.445 4.36,1.184 4.36,3.625l0,51.309c0,2.437 -1.96,4.8 -4.36,5.246" stroke="#8b6e4a" fill-rule="nonzero" fill="#8b6e4a"/>
    <path id="path28" d="m641.664,1246.3l-52.328,0c-2.438,0 -4.945,-1.92 -5.574,-4.28l-127.657,-481.508c-0.625,-2.36 -1.664,-2.364 -2.304,-0.008l-131.473,481.516c-0.64,2.36 -2.859,4.28 -4.926,4.28c-2.07,0 -4.382,-1.89 -5.14,-4.21l-135.715,-415.531c-0.762,-2.317 -1.902,-2.289 -2.539,0.066l-112.5705,415.395c-0.6367,2.36 -3.1563,4.28 -5.5977,4.28l-52.41402,0c-2.4414,0 -3.91406,-1.92 -3.27734,-4.28l140.41056,-518.165c0.636,-2.355 3.121,-4.648 5.519,-5.093l49.832,-9.274c2.399,-0.445 4.985,1.086 5.738,3.407l109.641,335.685c0.758,2.32 1.902,2.3 2.547,-0.06l102.66,-376c0.641,-2.352 3.129,-4.645 5.531,-5.09l62.922,-11.707c2.399,-0.446 4.875,1.121 5.5,3.476l154.516,582.821c0.625,2.36 -0.86,4.28 -3.301,4.28" stroke="#8b6e4a" fill-rule="nonzero" fill="#8b6e4a"/>
    <path id="path30" d="m1008.45,617.977l-234.395,43.789c-2.399,0.445 -4.364,2.808 -4.364,5.25l0,227.511c0,2.442 2,4.438 4.438,4.438l135.691,0c2.438,0 4.438,1.996 4.438,4.437l0,50.286c0,2.441 -2,4.433 -4.438,4.433l-135.691,0c-2.438,0 -4.438,2 -4.438,4.438l0,220.801c0,2.44 2,4.44 4.438,4.44l234.221,0c2.44,0 4.44,2 4.44,4.43l0,50.29c0,2.44 -2,4.44 -4.44,4.44l-234.221,0c-2.438,0 -4.438,0.02 -4.438,0.06c0,0.03 -1.996,0.05 -4.433,0.05l-50.285,0c-2.442,0 -4.438,-1.99 -4.438,-4.43l0,-624.48c0,-2.437 1.961,-4.805 4.36,-5.254l12.988,-2.445c2.398,-0.449 4.351,-0.871 4.34,-0.938c-0.016,-0.062 1.937,-0.484 4.336,-0.933l271.891,-50.789c2.4,-0.449 4.36,1.179 4.36,3.621l0,51.301c0,2.441 -1.96,4.804 -4.36,5.254" stroke="#8b6e4a" fill-rule="nonzero" fill="#8b6e4a"/>
   </g>
  </g>
 </g>
</svg>